<?xml version="1.0" encoding="utf-8"?>
<!-- Generator: Adobe Illustrator 25.2.3, SVG Export Plug-In . SVG Version: 6.00 Build 0)  -->
<svg version="1.1" id="AW" xmlns="http://www.w3.org/2000/svg" xmlns:xlink="http://www.w3.org/1999/xlink" x="0px" y="0px"
	 viewBox="0 0 278.6 139.9" style="enable-background:new 0 0 278.6 139.9;" xml:space="preserve">
<g id="COL_x5F_B">
</g>
<g id="COL_x5F_T">
</g>
<g id="WHITE_x5F_R">
</g>
<g id="WHITE_x5F_L">
</g>
<linearGradient id="SVGID_1_" gradientUnits="userSpaceOnUse" x1="141.7754" y1="154.0495" x2="72.3744" y2="28.8468">
	<stop  offset="0" style="stop-color:#DADADA"/>
	<stop  offset="0.3657" style="stop-color:#DFDFDD"/>
	<stop  offset="0.5383" style="stop-color:#EBEBE9"/>
	<stop  offset="0.7558" style="stop-color:#FFFFFF"/>
	<stop  offset="0.8184" style="stop-color:#F0F0F0"/>
	<stop  offset="0.9033" style="stop-color:#D4D4D4"/>
</linearGradient>
<path style="fill:url(#SVGID_1_);" d="M186.7,60.5c0.6-2.2,1-4.5,1.1-6.9c0.2-4.7-0.6-9.4-2.2-13.7c-1.4-3.6-3.4-6.8-6-9.7
	c-0.6-0.7-1.2-1.3-1.9-1.9c-0.3-0.3-0.6-0.5-0.8-0.8c-7.3-6.5-17.8-10.5-29.4-11.8c-2.8-0.3-5.6-0.5-8.4-0.5
	c-6.3,0-12.8,0.8-19.3,2.2c-6.9,1.6-13.7,3.9-20.1,7c-8.8,4.2-17.2,10.7-21.9,14.1c-6,4.4-9,4-12.5,2.4c4.9,2.7,11.1,3.9,19.3,2.8
	c3.4-0.5,7-0.9,10.5-1.1c5.3-0.4,10.6-0.5,15.9-0.2c10,0.7,22.4,2.9,28.5,11.7c1.6,2.3,2.4,4.9,2.9,8.2c0.8,6-1,11.9-4,17.1
	c-1.9,3.2-4.2,6.2-6.7,8.9c-3.3,3.5-7,6.6-10.9,9.4c-2,1.5-4.1,2.9-6.2,4.2c-5,3.3-11.8,7.6-19.6,12.1
	c-24.4,13.9-57.9,28.5-73.8,16.6c4,3.4,8.7,6,13.8,7.5c5.6,1.6,11.5,1.8,17.3,1.3c10.3-0.9,20.3-4,29.9-7.8
	c9.8-3.8,19.2-8.5,28.5-13.3c2.4-1.2,4.9-2.5,7.3-3.8c13.4-6.9,27.4-14,39.2-21.8c7.3-4.8,14.4-10.1,20.2-16.6
	c2.5-2.8,4.7-5.8,6.5-9L186.7,60.5z"/>
<linearGradient id="SVGID_2_" gradientUnits="userSpaceOnUse" x1="-12.3739" y1="35.8061" x2="110.9737" y2="159.1536">
	<stop  offset="0.2002" style="stop-color:#F50039"/>
	<stop  offset="0.2403" style="stop-color:#FF3665"/>
	<stop  offset="0.2697" style="stop-color:#FF5B80"/>
	<stop  offset="0.3438" style="stop-color:#FE8E8E"/>
	<stop  offset="0.4074" style="stop-color:#FEADB2"/>
	<stop  offset="0.4759" style="stop-color:#FF8DAF"/>
	<stop  offset="0.4921" style="stop-color:#FF8AAF"/>
	<stop  offset="0.5901" style="stop-color:#FF77BD"/>
	<stop  offset="0.6507" style="stop-color:#E76CD7"/>
	<stop  offset="0.7003" style="stop-color:#AF5BE7"/>
	<stop  offset="0.7279" style="stop-color:#895EFD"/>
</linearGradient>
<path style="fill:url(#SVGID_2_);" d="M21.2,130.4c20.9,15.9,72.3-14.6,93.4-28.7c-20.7,13.8-48.9,21.9-66.8,20
	C18.7,118.6,12.9,69,17.5,34.9C16.2,42.2-2.5,110.4,21.2,130.4z"/>
<linearGradient id="_x3C_Path_x3E__1_2_" gradientUnits="userSpaceOnUse" x1="32.1725" y1="-16.8697" x2="90.3034" y2="41.2612">
	<stop  offset="0.2803" style="stop-color:#FC6EA6"/>
	<stop  offset="0.4651" style="stop-color:#E069D2"/>
	<stop  offset="0.5671" style="stop-color:#E67EEB"/>
	<stop  offset="0.6555" style="stop-color:#DC64F9"/>
	<stop  offset="0.7013" style="stop-color:#C165FA"/>
	<stop  offset="0.7861" style="stop-color:#9566FB"/>
	<stop  offset="0.8291" style="stop-color:#8466FC"/>
	<stop  offset="0.9351" style="stop-color:#5978F9"/>
</linearGradient>
<path id="_x3C_Path_x3E__1_1_" style="fill:url(#_x3C_Path_x3E__1_2_);" d="M43.8,0.4c-3.8,0-7.5,0.5-13.2,2.5l0,0
	C46.8-3,45.6,28.8,64,40.1c0.1,0.1,0.2,0.1,0.3,0.2c0.1,0.1,0.2,0.1,0.3,0.2c9.8,5.5,13.1-5,35.1-16.1c-3.8,1.9-7.2,3.4-11.4,4
	c-6.4,0.8-10.1-4.6-12.7-7.7C73.5,18,63.5,0.5,44.1,0.4H43.8z"/>
<path style="fill:#414141;" d="M61.2,65.8v5.1h11.7v6.7H61.2v11.9h-7.9V59.1h20.5v6.7H61.2z"/>
<path style="fill:#414141;" d="M80.1,89.5V59.1H88v30.4H80.1z"/>
<path style="fill:#414141;" d="M117.9,89.5l-14.5-18.6v18.6h-7.9V59.1h7.9l14.5,18.6V59.1h7.9v30.4H117.9z"/>
<path style="fill:#414141;" d="M153.5,89.5l-2-5.3h-10.9l-2.1,5.3h-8.3l11.5-30.4h8.7L162,89.5H153.5z M146.1,68.5l-3.3,9.7h6.6
	L146.1,68.5z"/>
<path style="fill:#414141;" d="M206.8,65.8v23.7h-7.9V65.8h-7.3v-6.7h22.6v6.7H206.8z"/>
<path style="fill:#414141;" d="M234.9,89.5l-7.6-11.7v11.7h-7.9V59.1h12.3c2.9,0,5.4,0.5,7.4,2.7c1.7,1.8,2.6,4.3,2.6,6.7
	c0,1.9-0.6,4.1-1.7,5.6c-1.2,1.7-2.9,2.5-4.9,2.9l9.5,12.4H234.9z M228.9,65.2h-1.5v7.5h1.5c2.5,0,4.8-1,4.8-3.8
	C233.7,66.1,231.3,65.2,228.9,65.2z"/>
<path style="fill:#414141;" d="M270,89.5l-2-5.3h-10.9l-2.1,5.3h-8.3l11.7-30.4h8.6l11.4,30.4H270z M262.7,68.5l-3.3,9.7h6.6
	L262.7,68.5z"/>
<path style="fill:#414141;" d="M187.2,85c-2,3.9-6.7,5.4-10.8,5.4c-3.8,0-7.7-1.4-10.8-3.5l3.5-6.4c2,1.7,4.3,3.1,7,3.1
	c1.9,0,3.8-0.8,3.8-3c0-5.3-13-1.3-13-12.1c0-6.2,4.2-10.4,10.4-10.4c3.4,0,6.4,0.7,9.4,2.3l-2.7,6.5c-1.5-1.2-3.3-2.1-5.4-2.1
	c-1.6,0-3.4,0.9-3.4,2.7c0,4.5,13.1,1.6,13.1,12.1C188.3,81.3,188,83.4,187.2,85z"/>
<linearGradient id="SVGID_3_" gradientUnits="userSpaceOnUse" x1="11.2239" y1="6.0012" x2="30.5203" y2="126.4721">
	<stop  offset="5.890821e-02" style="stop-color:#D5D5D5"/>
	<stop  offset="0.3079" style="stop-color:#FFFFFF"/>
	<stop  offset="0.3952" style="stop-color:#E1E0E0"/>
	<stop  offset="0.4777" style="stop-color:#CBCACA"/>
	<stop  offset="0.5304" style="stop-color:#C3C2C2"/>
</linearGradient>
<path style="fill:url(#SVGID_3_);" d="M13.7,120.8c0.4,0.7,0.8,1.4,1.3,2.1c0.4,0.7,0.9,1.3,1.3,1.9c0.5,0.6,0.9,1.2,1.4,1.8
	c0.5,0.6,0.9,1.2,1.4,1.7c-6.7-7.5-9.1-19.7-9.5-32.9c0-0.8,0-1.6,0-2.5c-0.1-16.3,2.5-32.4,5.9-48.3c1-4.6,2-9.1,2.8-13.7
	c0.6-3.2,1.4-6.9,2.1-10.1c2.1-10,6.4-15.2,7.3-16.1c0.9-0.9,1.9-1.5,3-1.9l0,0c-1.7,0.7-4.1,1.7-5.7,2.5c-3.2,1.6-6.4,3.5-9.1,5.8
	c-1.3,1-2.4,2.1-3.5,3.3C7,20,3.8,26.6,2.1,33.8c-1,4.1-1.5,8.3-1.6,12.5C-0.1,61.7,3,77,5.2,92.1C6.6,102,8.7,112,13.7,120.8z"/>
</svg>
